<mxfile host="draw.int.foxii.icu" modified="2023-04-27T08:02:01.509Z" agent="Mozilla/5.0 (Windows NT 10.0; Win64; x64) AppleWebKit/537.36 (KHTML, like Gecko) Chrome/112.0.0.0 Safari/537.36" etag="Uy6MozHRkUGNbjf7u5vl" version="21.2.1" type="device" pages="3">
  <diagram name="第 1 页" id="Yl0xwaFMlr-NV5wVUSYk">
    <mxGraphModel dx="1878" dy="880" grid="1" gridSize="3" guides="1" tooltips="1" connect="1" arrows="1" fold="1" page="1" pageScale="1" pageWidth="1654" pageHeight="1169" background="none" math="0" shadow="0">
      <root>
        <mxCell id="0" />
        <mxCell id="1" parent="0" />
        <mxCell id="1SGnOqaE-IKHNnZimrMi-48" style="edgeStyle=orthogonalEdgeStyle;rounded=0;orthogonalLoop=1;jettySize=auto;html=1;exitX=0.5;exitY=1;exitDx=0;exitDy=0;sketch=1;curveFitting=1;jiggle=2;fontSize=12;fontFamily=Helvetica;fontStyle=0;labelBorderColor=none;labelBackgroundColor=none;fontColor=default;" parent="1" source="1SGnOqaE-IKHNnZimrMi-6" target="1SGnOqaE-IKHNnZimrMi-43" edge="1">
          <mxGeometry relative="1" as="geometry" />
        </mxCell>
        <mxCell id="1SGnOqaE-IKHNnZimrMi-6" value="" style="swimlane;startSize=0;rounded=0;sketch=1;curveFitting=1;jiggle=2;fontSize=12;fontFamily=Helvetica;fontStyle=0;labelBorderColor=none;labelBackgroundColor=none;fontColor=default;" parent="1" vertex="1">
          <mxGeometry x="70" y="229" width="550" height="260" as="geometry">
            <mxRectangle x="70" y="170" width="50" height="40" as="alternateBounds" />
          </mxGeometry>
        </mxCell>
        <mxCell id="1SGnOqaE-IKHNnZimrMi-15" style="edgeStyle=orthogonalEdgeStyle;rounded=0;orthogonalLoop=1;jettySize=auto;html=1;exitX=0.5;exitY=1;exitDx=0;exitDy=0;entryX=0.5;entryY=0;entryDx=0;entryDy=0;sketch=1;curveFitting=1;jiggle=2;fontSize=12;fontFamily=Helvetica;fontStyle=0;labelBorderColor=none;labelBackgroundColor=none;fontColor=default;" parent="1SGnOqaE-IKHNnZimrMi-6" source="1SGnOqaE-IKHNnZimrMi-8" target="1SGnOqaE-IKHNnZimrMi-14" edge="1">
          <mxGeometry relative="1" as="geometry" />
        </mxCell>
        <mxCell id="1SGnOqaE-IKHNnZimrMi-8" value="苹果1" style="rounded=0;whiteSpace=wrap;html=1;sketch=1;curveFitting=1;jiggle=2;fontSize=12;fontFamily=Helvetica;fontStyle=0;labelBorderColor=none;labelBackgroundColor=none;fontColor=default;" parent="1SGnOqaE-IKHNnZimrMi-6" vertex="1">
          <mxGeometry x="20" y="40" width="120" height="60" as="geometry" />
        </mxCell>
        <mxCell id="1SGnOqaE-IKHNnZimrMi-16" style="edgeStyle=orthogonalEdgeStyle;rounded=0;orthogonalLoop=1;jettySize=auto;html=1;exitX=0.5;exitY=1;exitDx=0;exitDy=0;sketch=1;curveFitting=1;jiggle=2;fontSize=12;fontFamily=Helvetica;fontStyle=0;labelBorderColor=none;labelBackgroundColor=none;fontColor=default;" parent="1SGnOqaE-IKHNnZimrMi-6" source="1SGnOqaE-IKHNnZimrMi-11" target="1SGnOqaE-IKHNnZimrMi-14" edge="1">
          <mxGeometry relative="1" as="geometry" />
        </mxCell>
        <mxCell id="1SGnOqaE-IKHNnZimrMi-11" value="苹果2" style="rounded=0;whiteSpace=wrap;html=1;sketch=1;curveFitting=1;jiggle=2;fontSize=12;fontFamily=Helvetica;fontStyle=0;labelBorderColor=none;labelBackgroundColor=none;fontColor=default;" parent="1SGnOqaE-IKHNnZimrMi-6" vertex="1">
          <mxGeometry x="150" y="40" width="120" height="60" as="geometry" />
        </mxCell>
        <mxCell id="1SGnOqaE-IKHNnZimrMi-17" style="edgeStyle=orthogonalEdgeStyle;rounded=0;orthogonalLoop=1;jettySize=auto;html=1;exitX=0.5;exitY=1;exitDx=0;exitDy=0;sketch=1;curveFitting=1;jiggle=2;fontSize=12;fontFamily=Helvetica;fontStyle=0;labelBorderColor=none;labelBackgroundColor=none;fontColor=default;" parent="1SGnOqaE-IKHNnZimrMi-6" source="1SGnOqaE-IKHNnZimrMi-12" target="1SGnOqaE-IKHNnZimrMi-14" edge="1">
          <mxGeometry relative="1" as="geometry" />
        </mxCell>
        <mxCell id="1SGnOqaE-IKHNnZimrMi-12" value="苹果3" style="rounded=0;whiteSpace=wrap;html=1;sketch=1;curveFitting=1;jiggle=2;fontSize=12;fontFamily=Helvetica;fontStyle=0;labelBorderColor=none;labelBackgroundColor=none;fontColor=default;" parent="1SGnOqaE-IKHNnZimrMi-6" vertex="1">
          <mxGeometry x="283.5" y="40" width="120" height="60" as="geometry" />
        </mxCell>
        <mxCell id="1SGnOqaE-IKHNnZimrMi-18" style="edgeStyle=orthogonalEdgeStyle;rounded=0;orthogonalLoop=1;jettySize=auto;html=1;exitX=0.5;exitY=1;exitDx=0;exitDy=0;entryX=0.5;entryY=0;entryDx=0;entryDy=0;sketch=1;curveFitting=1;jiggle=2;fontSize=12;fontFamily=Helvetica;fontStyle=0;labelBorderColor=none;labelBackgroundColor=none;fontColor=default;" parent="1SGnOqaE-IKHNnZimrMi-6" source="1SGnOqaE-IKHNnZimrMi-13" target="1SGnOqaE-IKHNnZimrMi-14" edge="1">
          <mxGeometry relative="1" as="geometry">
            <mxPoint x="280" y="170" as="targetPoint" />
          </mxGeometry>
        </mxCell>
        <mxCell id="1SGnOqaE-IKHNnZimrMi-13" value="..." style="rounded=0;whiteSpace=wrap;html=1;sketch=1;curveFitting=1;jiggle=2;fontSize=12;fontFamily=Helvetica;fontStyle=0;labelBorderColor=none;labelBackgroundColor=none;fontColor=default;" parent="1SGnOqaE-IKHNnZimrMi-6" vertex="1">
          <mxGeometry x="420" y="40" width="120" height="60" as="geometry" />
        </mxCell>
        <mxCell id="1SGnOqaE-IKHNnZimrMi-14" value="苹果" style="rounded=0;whiteSpace=wrap;html=1;sketch=1;curveFitting=1;jiggle=2;fontSize=12;fontFamily=Helvetica;fontStyle=0;labelBorderColor=none;labelBackgroundColor=none;fontColor=default;" parent="1SGnOqaE-IKHNnZimrMi-6" vertex="1">
          <mxGeometry x="215" y="170" width="120" height="60" as="geometry" />
        </mxCell>
        <mxCell id="vWAVznYgMX22e1zpLjMc-3" value="提取共性" style="edgeLabel;html=1;align=center;verticalAlign=middle;resizable=0;points=[];fontSize=12;fontFamily=Architects Daughter;" parent="1SGnOqaE-IKHNnZimrMi-6" vertex="1" connectable="0">
          <mxGeometry x="275" y="149" as="geometry" />
        </mxCell>
        <mxCell id="1SGnOqaE-IKHNnZimrMi-49" style="edgeStyle=orthogonalEdgeStyle;rounded=0;orthogonalLoop=1;jettySize=auto;html=1;exitX=0.5;exitY=1;exitDx=0;exitDy=0;sketch=1;curveFitting=1;jiggle=2;entryX=0.5;entryY=0;entryDx=0;entryDy=0;fontSize=12;fontFamily=Helvetica;fontStyle=0;labelBorderColor=none;labelBackgroundColor=none;fontColor=default;" parent="1" source="1SGnOqaE-IKHNnZimrMi-20" target="1SGnOqaE-IKHNnZimrMi-43" edge="1">
          <mxGeometry relative="1" as="geometry">
            <mxPoint x="1310" y="819" as="targetPoint" />
          </mxGeometry>
        </mxCell>
        <mxCell id="1SGnOqaE-IKHNnZimrMi-20" value="" style="swimlane;startSize=0;rounded=0;sketch=1;curveFitting=1;jiggle=2;fontSize=12;fontFamily=Helvetica;fontStyle=0;labelBorderColor=none;labelBackgroundColor=none;fontColor=default;" parent="1" vertex="1">
          <mxGeometry x="716" y="229" width="550" height="260" as="geometry">
            <mxRectangle x="70" y="170" width="50" height="40" as="alternateBounds" />
          </mxGeometry>
        </mxCell>
        <mxCell id="1SGnOqaE-IKHNnZimrMi-21" style="edgeStyle=orthogonalEdgeStyle;rounded=0;orthogonalLoop=1;jettySize=auto;html=1;exitX=0.5;exitY=1;exitDx=0;exitDy=0;entryX=0.5;entryY=0;entryDx=0;entryDy=0;sketch=1;curveFitting=1;jiggle=2;fontSize=12;fontFamily=Helvetica;fontStyle=0;labelBorderColor=none;labelBackgroundColor=none;fontColor=default;" parent="1SGnOqaE-IKHNnZimrMi-20" source="1SGnOqaE-IKHNnZimrMi-22" target="1SGnOqaE-IKHNnZimrMi-30" edge="1">
          <mxGeometry relative="1" as="geometry" />
        </mxCell>
        <mxCell id="1SGnOqaE-IKHNnZimrMi-22" value="那一条河流第一次印象" style="rounded=0;whiteSpace=wrap;html=1;sketch=1;curveFitting=1;jiggle=2;fontSize=12;fontFamily=Helvetica;fontStyle=0;labelBorderColor=none;labelBackgroundColor=none;fontColor=default;" parent="1SGnOqaE-IKHNnZimrMi-20" vertex="1">
          <mxGeometry x="20" y="40" width="120" height="60" as="geometry" />
        </mxCell>
        <mxCell id="1SGnOqaE-IKHNnZimrMi-23" style="edgeStyle=orthogonalEdgeStyle;rounded=0;orthogonalLoop=1;jettySize=auto;html=1;exitX=0.5;exitY=1;exitDx=0;exitDy=0;sketch=1;curveFitting=1;jiggle=2;fontSize=12;fontFamily=Helvetica;fontStyle=0;labelBorderColor=none;labelBackgroundColor=none;fontColor=default;" parent="1SGnOqaE-IKHNnZimrMi-20" source="1SGnOqaE-IKHNnZimrMi-24" target="1SGnOqaE-IKHNnZimrMi-30" edge="1">
          <mxGeometry relative="1" as="geometry" />
        </mxCell>
        <mxCell id="1SGnOqaE-IKHNnZimrMi-24" value="那一条河流第二次印象" style="rounded=0;whiteSpace=wrap;html=1;sketch=1;curveFitting=1;jiggle=2;fontSize=12;fontFamily=Helvetica;fontStyle=0;labelBorderColor=none;labelBackgroundColor=none;fontColor=default;" parent="1SGnOqaE-IKHNnZimrMi-20" vertex="1">
          <mxGeometry x="150" y="40" width="120" height="60" as="geometry" />
        </mxCell>
        <mxCell id="1SGnOqaE-IKHNnZimrMi-25" style="edgeStyle=orthogonalEdgeStyle;rounded=0;orthogonalLoop=1;jettySize=auto;html=1;exitX=0.5;exitY=1;exitDx=0;exitDy=0;sketch=1;curveFitting=1;jiggle=2;fontSize=12;fontFamily=Helvetica;fontStyle=0;labelBorderColor=none;labelBackgroundColor=none;fontColor=default;" parent="1SGnOqaE-IKHNnZimrMi-20" source="1SGnOqaE-IKHNnZimrMi-27" target="1SGnOqaE-IKHNnZimrMi-30" edge="1">
          <mxGeometry relative="1" as="geometry" />
        </mxCell>
        <mxCell id="1SGnOqaE-IKHNnZimrMi-27" value="那一条河流第三次印象" style="rounded=0;whiteSpace=wrap;html=1;sketch=1;curveFitting=1;jiggle=2;fontSize=12;fontFamily=Helvetica;fontStyle=0;labelBorderColor=none;labelBackgroundColor=none;fontColor=default;" parent="1SGnOqaE-IKHNnZimrMi-20" vertex="1">
          <mxGeometry x="283.5" y="40" width="120" height="60" as="geometry" />
        </mxCell>
        <mxCell id="1SGnOqaE-IKHNnZimrMi-28" style="edgeStyle=orthogonalEdgeStyle;rounded=0;orthogonalLoop=1;jettySize=auto;html=1;exitX=0.5;exitY=1;exitDx=0;exitDy=0;entryX=0.5;entryY=0;entryDx=0;entryDy=0;sketch=1;curveFitting=1;jiggle=2;fontSize=12;fontFamily=Helvetica;fontStyle=0;labelBorderColor=none;labelBackgroundColor=none;fontColor=default;" parent="1SGnOqaE-IKHNnZimrMi-20" source="1SGnOqaE-IKHNnZimrMi-29" target="1SGnOqaE-IKHNnZimrMi-30" edge="1">
          <mxGeometry relative="1" as="geometry">
            <mxPoint x="280" y="170" as="targetPoint" />
          </mxGeometry>
        </mxCell>
        <mxCell id="1SGnOqaE-IKHNnZimrMi-29" value="..." style="rounded=0;whiteSpace=wrap;html=1;sketch=1;curveFitting=1;jiggle=2;fontSize=12;fontFamily=Helvetica;fontStyle=0;labelBorderColor=none;labelBackgroundColor=none;fontColor=default;" parent="1SGnOqaE-IKHNnZimrMi-20" vertex="1">
          <mxGeometry x="420" y="40" width="120" height="60" as="geometry" />
        </mxCell>
        <mxCell id="1SGnOqaE-IKHNnZimrMi-30" value="那一条河流" style="rounded=0;whiteSpace=wrap;html=1;sketch=1;curveFitting=1;jiggle=2;fontSize=12;fontFamily=Helvetica;fontStyle=0;labelBorderColor=none;labelBackgroundColor=none;fontColor=default;" parent="1SGnOqaE-IKHNnZimrMi-20" vertex="1">
          <mxGeometry x="215" y="170" width="120" height="60" as="geometry" />
        </mxCell>
        <mxCell id="vWAVznYgMX22e1zpLjMc-4" value="提取共性" style="edgeLabel;html=1;align=center;verticalAlign=middle;resizable=0;points=[];fontSize=12;fontFamily=Architects Daughter;" parent="1SGnOqaE-IKHNnZimrMi-20" vertex="1" connectable="0">
          <mxGeometry x="275" y="149" as="geometry" />
        </mxCell>
        <mxCell id="1SGnOqaE-IKHNnZimrMi-50" style="edgeStyle=orthogonalEdgeStyle;rounded=0;orthogonalLoop=1;jettySize=auto;html=1;exitX=0.5;exitY=1;exitDx=0;exitDy=0;entryX=0.5;entryY=0;entryDx=0;entryDy=0;sketch=1;curveFitting=1;jiggle=2;fontSize=12;fontFamily=Helvetica;fontStyle=0;labelBorderColor=none;labelBackgroundColor=none;fontColor=default;" parent="1" source="1SGnOqaE-IKHNnZimrMi-31" target="1SGnOqaE-IKHNnZimrMi-43" edge="1">
          <mxGeometry relative="1" as="geometry" />
        </mxCell>
        <mxCell id="1SGnOqaE-IKHNnZimrMi-31" value="" style="swimlane;startSize=0;rounded=0;sketch=1;curveFitting=1;jiggle=2;fontSize=12;fontFamily=Helvetica;fontStyle=0;labelBorderColor=none;labelBackgroundColor=none;fontColor=default;" parent="1" vertex="1">
          <mxGeometry x="1360" y="229" width="550" height="260" as="geometry">
            <mxRectangle x="70" y="170" width="50" height="40" as="alternateBounds" />
          </mxGeometry>
        </mxCell>
        <mxCell id="1SGnOqaE-IKHNnZimrMi-32" style="edgeStyle=orthogonalEdgeStyle;rounded=0;orthogonalLoop=1;jettySize=auto;html=1;exitX=0.5;exitY=1;exitDx=0;exitDy=0;entryX=0.5;entryY=0;entryDx=0;entryDy=0;sketch=1;curveFitting=1;jiggle=2;fontSize=12;fontFamily=Helvetica;fontStyle=0;labelBorderColor=none;labelBackgroundColor=none;fontColor=default;" parent="1SGnOqaE-IKHNnZimrMi-31" source="1SGnOqaE-IKHNnZimrMi-33" target="1SGnOqaE-IKHNnZimrMi-41" edge="1">
          <mxGeometry relative="1" as="geometry" />
        </mxCell>
        <mxCell id="1SGnOqaE-IKHNnZimrMi-33" value="一堆苹果" style="rounded=0;whiteSpace=wrap;html=1;sketch=1;curveFitting=1;jiggle=2;fontSize=12;fontFamily=Helvetica;fontStyle=0;labelBorderColor=none;labelBackgroundColor=none;fontColor=default;" parent="1SGnOqaE-IKHNnZimrMi-31" vertex="1">
          <mxGeometry x="20" y="40" width="120" height="60" as="geometry" />
        </mxCell>
        <mxCell id="1SGnOqaE-IKHNnZimrMi-34" style="edgeStyle=orthogonalEdgeStyle;rounded=0;orthogonalLoop=1;jettySize=auto;html=1;exitX=0.5;exitY=1;exitDx=0;exitDy=0;sketch=1;curveFitting=1;jiggle=2;fontSize=12;fontFamily=Helvetica;fontStyle=0;labelBorderColor=none;labelBackgroundColor=none;fontColor=default;" parent="1SGnOqaE-IKHNnZimrMi-31" source="1SGnOqaE-IKHNnZimrMi-35" target="1SGnOqaE-IKHNnZimrMi-41" edge="1">
          <mxGeometry relative="1" as="geometry" />
        </mxCell>
        <mxCell id="1SGnOqaE-IKHNnZimrMi-35" value="一堆树叶" style="rounded=0;whiteSpace=wrap;html=1;sketch=1;curveFitting=1;jiggle=2;fontSize=12;fontFamily=Helvetica;fontStyle=0;labelBorderColor=none;labelBackgroundColor=none;fontColor=default;" parent="1SGnOqaE-IKHNnZimrMi-31" vertex="1">
          <mxGeometry x="150" y="40" width="120" height="60" as="geometry" />
        </mxCell>
        <mxCell id="1SGnOqaE-IKHNnZimrMi-36" style="edgeStyle=orthogonalEdgeStyle;rounded=0;orthogonalLoop=1;jettySize=auto;html=1;exitX=0.5;exitY=1;exitDx=0;exitDy=0;sketch=1;curveFitting=1;jiggle=2;fontSize=12;fontFamily=Helvetica;fontStyle=0;labelBorderColor=none;labelBackgroundColor=none;fontColor=default;" parent="1SGnOqaE-IKHNnZimrMi-31" source="1SGnOqaE-IKHNnZimrMi-38" target="1SGnOqaE-IKHNnZimrMi-41" edge="1">
          <mxGeometry relative="1" as="geometry" />
        </mxCell>
        <mxCell id="1SGnOqaE-IKHNnZimrMi-38" value="一堆石块" style="rounded=0;whiteSpace=wrap;html=1;sketch=1;curveFitting=1;jiggle=2;fontSize=12;fontFamily=Helvetica;fontStyle=0;labelBorderColor=none;labelBackgroundColor=none;fontColor=default;" parent="1SGnOqaE-IKHNnZimrMi-31" vertex="1">
          <mxGeometry x="283.5" y="40" width="120" height="60" as="geometry" />
        </mxCell>
        <mxCell id="1SGnOqaE-IKHNnZimrMi-39" style="edgeStyle=orthogonalEdgeStyle;rounded=0;orthogonalLoop=1;jettySize=auto;html=1;exitX=0.5;exitY=1;exitDx=0;exitDy=0;entryX=0.5;entryY=0;entryDx=0;entryDy=0;sketch=1;curveFitting=1;jiggle=2;fontSize=12;fontFamily=Helvetica;fontStyle=0;labelBorderColor=none;labelBackgroundColor=none;fontColor=default;" parent="1SGnOqaE-IKHNnZimrMi-31" source="1SGnOqaE-IKHNnZimrMi-40" target="1SGnOqaE-IKHNnZimrMi-41" edge="1">
          <mxGeometry relative="1" as="geometry">
            <mxPoint x="280" y="170" as="targetPoint" />
          </mxGeometry>
        </mxCell>
        <mxCell id="1SGnOqaE-IKHNnZimrMi-40" value="..." style="rounded=0;whiteSpace=wrap;html=1;sketch=1;curveFitting=1;jiggle=2;fontSize=12;fontFamily=Helvetica;fontStyle=0;labelBorderColor=none;labelBackgroundColor=none;fontColor=default;" parent="1SGnOqaE-IKHNnZimrMi-31" vertex="1">
          <mxGeometry x="420" y="40" width="120" height="60" as="geometry" />
        </mxCell>
        <mxCell id="1SGnOqaE-IKHNnZimrMi-41" value="数字" style="rounded=0;whiteSpace=wrap;html=1;sketch=1;curveFitting=1;jiggle=2;fontSize=12;fontFamily=Helvetica;fontStyle=0;labelBorderColor=none;labelBackgroundColor=none;fontColor=default;" parent="1SGnOqaE-IKHNnZimrMi-31" vertex="1">
          <mxGeometry x="215" y="170" width="120" height="60" as="geometry" />
        </mxCell>
        <mxCell id="vWAVznYgMX22e1zpLjMc-5" value="提取共性" style="edgeLabel;html=1;align=center;verticalAlign=middle;resizable=0;points=[];fontSize=12;fontFamily=Architects Daughter;" parent="1SGnOqaE-IKHNnZimrMi-31" vertex="1" connectable="0">
          <mxGeometry x="275" y="149" as="geometry" />
        </mxCell>
        <mxCell id="vWAVznYgMX22e1zpLjMc-7" value="" style="shape=curlyBracket;whiteSpace=wrap;html=1;rounded=1;flipH=1;labelPosition=right;verticalLabelPosition=middle;align=left;verticalAlign=middle;sketch=1;hachureGap=4;jiggle=2;curveFitting=1;fontFamily=Architects Daughter;fontSource=https%3A%2F%2Ffonts.googleapis.com%2Fcss%3Ffamily%3DArchitects%2BDaughter;fontSize=20;rotation=270;" parent="1SGnOqaE-IKHNnZimrMi-31" vertex="1">
          <mxGeometry x="262.25" y="-178.75" width="25.5" height="400" as="geometry" />
        </mxCell>
        <mxCell id="1SGnOqaE-IKHNnZimrMi-51" style="edgeStyle=orthogonalEdgeStyle;rounded=0;orthogonalLoop=1;jettySize=auto;html=1;exitX=0.5;exitY=1;exitDx=0;exitDy=0;sketch=1;curveFitting=1;jiggle=2;entryX=0.5;entryY=0;entryDx=0;entryDy=0;fontSize=12;fontFamily=Helvetica;fontStyle=0;labelBorderColor=none;labelBackgroundColor=none;fontColor=default;" parent="1" source="1SGnOqaE-IKHNnZimrMi-42" target="1SGnOqaE-IKHNnZimrMi-43" edge="1">
          <mxGeometry relative="1" as="geometry">
            <mxPoint x="1362" y="827" as="targetPoint" />
          </mxGeometry>
        </mxCell>
        <mxCell id="vWAVznYgMX22e1zpLjMc-2" value="提取共性" style="edgeLabel;html=1;align=center;verticalAlign=middle;resizable=0;points=[];fontSize=12;fontFamily=Architects Daughter;" parent="1SGnOqaE-IKHNnZimrMi-51" vertex="1" connectable="0">
          <mxGeometry x="0.8913" y="3" relative="1" as="geometry">
            <mxPoint y="1" as="offset" />
          </mxGeometry>
        </mxCell>
        <mxCell id="1SGnOqaE-IKHNnZimrMi-42" value="..." style="rounded=0;whiteSpace=wrap;html=1;fillColor=none;sketch=1;curveFitting=1;jiggle=2;fontSize=12;fontFamily=Helvetica;fontStyle=0;labelBorderColor=none;labelBackgroundColor=none;fontColor=default;" parent="1" vertex="1">
          <mxGeometry x="2000" y="229" width="550" height="260" as="geometry" />
        </mxCell>
        <mxCell id="1SGnOqaE-IKHNnZimrMi-43" value="概念" style="swimlane;fontStyle=0;childLayout=stackLayout;horizontal=1;startSize=30;horizontalStack=0;resizeParent=1;resizeParentMax=0;resizeLast=0;collapsible=1;marginBottom=0;whiteSpace=wrap;html=1;fillColor=none;rounded=0;sketch=1;curveFitting=1;jiggle=2;fontSize=12;fontFamily=Helvetica;labelBorderColor=none;labelBackgroundColor=none;fontColor=default;" parent="1" vertex="1">
          <mxGeometry x="1116" y="836" width="399" height="192" as="geometry" />
        </mxCell>
        <mxCell id="1SGnOqaE-IKHNnZimrMi-44" value="抽象就是总结抽象对象的共性的过程，共性称为概念，对象可以是原始印象或概念" style="text;strokeColor=none;fillColor=none;align=left;verticalAlign=middle;spacingLeft=4;spacingRight=4;overflow=hidden;points=[[0,0.5],[1,0.5]];portConstraint=eastwest;rotatable=0;whiteSpace=wrap;html=1;rounded=0;sketch=1;curveFitting=1;jiggle=2;fontSize=12;fontFamily=Helvetica;fontStyle=0;labelBorderColor=none;labelBackgroundColor=none;fontColor=default;" parent="1SGnOqaE-IKHNnZimrMi-43" vertex="1">
          <mxGeometry y="30" width="399" height="39" as="geometry" />
        </mxCell>
        <mxCell id="qj8h1Q31FDAgZCi3IK30-6" value="共性通过比较得来" style="text;strokeColor=none;fillColor=none;align=left;verticalAlign=middle;spacingLeft=4;spacingRight=4;overflow=hidden;points=[[0,0.5],[1,0.5]];portConstraint=eastwest;rotatable=0;whiteSpace=wrap;html=1;fontSize=12;fontFamily=Helvetica;fontStyle=0;labelBorderColor=none;labelBackgroundColor=none;fontColor=default;" parent="1SGnOqaE-IKHNnZimrMi-43" vertex="1">
          <mxGeometry y="69" width="399" height="30" as="geometry" />
        </mxCell>
        <mxCell id="1SGnOqaE-IKHNnZimrMi-45" value="在人们记忆信息时，抽象通过提取共性而减少了对不同对象中相同部分的信息的重复记忆" style="text;strokeColor=none;fillColor=none;align=left;verticalAlign=middle;spacingLeft=4;spacingRight=4;overflow=hidden;points=[[0,0.5],[1,0.5]];portConstraint=eastwest;rotatable=0;whiteSpace=wrap;html=1;rounded=0;sketch=1;curveFitting=1;jiggle=2;fontSize=12;fontFamily=Helvetica;fontStyle=0;labelBorderColor=none;labelBackgroundColor=none;fontColor=default;" parent="1SGnOqaE-IKHNnZimrMi-43" vertex="1">
          <mxGeometry y="99" width="399" height="33" as="geometry" />
        </mxCell>
        <mxCell id="1SGnOqaE-IKHNnZimrMi-47" value="概念对未知对象具有一定的预测作用" style="text;strokeColor=none;fillColor=none;align=left;verticalAlign=middle;spacingLeft=4;spacingRight=4;overflow=hidden;points=[[0,0.5],[1,0.5]];portConstraint=eastwest;rotatable=0;whiteSpace=wrap;html=1;rounded=0;sketch=1;curveFitting=1;jiggle=2;fontSize=12;fontFamily=Helvetica;fontStyle=0;labelBorderColor=none;labelBackgroundColor=none;fontColor=default;" parent="1SGnOqaE-IKHNnZimrMi-43" vertex="1">
          <mxGeometry y="132" width="399" height="30" as="geometry" />
        </mxCell>
        <mxCell id="1SGnOqaE-IKHNnZimrMi-46" value="..." style="text;strokeColor=none;fillColor=none;align=left;verticalAlign=middle;spacingLeft=4;spacingRight=4;overflow=hidden;points=[[0,0.5],[1,0.5]];portConstraint=eastwest;rotatable=0;whiteSpace=wrap;html=1;rounded=0;sketch=1;curveFitting=1;jiggle=2;fontSize=12;fontFamily=Helvetica;fontStyle=0;labelBorderColor=none;labelBackgroundColor=none;fontColor=default;" parent="1SGnOqaE-IKHNnZimrMi-43" vertex="1">
          <mxGeometry y="162" width="399" height="30" as="geometry" />
        </mxCell>
        <mxCell id="qj8h1Q31FDAgZCi3IK30-1" value="规律的有限可达性质：规律总是由原始印象经过有限步数的抽象或类比得来" style="rounded=0;whiteSpace=wrap;html=1;hachureGap=4;fontFamily=Helvetica;fontSize=12;sketch=1;curveFitting=1;jiggle=2;fontStyle=0;labelBorderColor=none;labelBackgroundColor=none;fontColor=default;" parent="1" vertex="1">
          <mxGeometry x="1587" y="864" width="210" height="43" as="geometry" />
        </mxCell>
        <mxCell id="qj8h1Q31FDAgZCi3IK30-3" style="edgeStyle=orthogonalEdgeStyle;rounded=0;sketch=1;hachureGap=4;jiggle=2;curveFitting=1;orthogonalLoop=1;jettySize=auto;html=1;exitX=1;exitY=0.5;exitDx=0;exitDy=0;entryX=0;entryY=0.5;entryDx=0;entryDy=0;fontFamily=Helvetica;fontSize=12;fontStyle=0;labelBorderColor=none;labelBackgroundColor=none;fontColor=default;" parent="1" source="1SGnOqaE-IKHNnZimrMi-44" target="qj8h1Q31FDAgZCi3IK30-1" edge="1">
          <mxGeometry relative="1" as="geometry" />
        </mxCell>
        <mxCell id="qj8h1Q31FDAgZCi3IK30-7" value="" style="shape=curlyBracket;whiteSpace=wrap;html=1;rounded=1;flipH=1;labelPosition=right;verticalLabelPosition=middle;align=left;verticalAlign=middle;labelBackgroundColor=none;labelBorderColor=none;sketch=1;hachureGap=4;jiggle=2;curveFitting=1;fontFamily=Helvetica;fontSize=12;fontColor=default;rotation=-90;" parent="1" vertex="1">
          <mxGeometry x="1260.07" y="-813.18" width="110.87" height="1953" as="geometry" />
        </mxCell>
        <mxCell id="qj8h1Q31FDAgZCi3IK30-8" value="抽象对象" style="rounded=0;whiteSpace=wrap;html=1;labelBackgroundColor=none;labelBorderColor=none;sketch=1;hachureGap=4;jiggle=2;curveFitting=1;fontFamily=Helvetica;fontSize=12;fontColor=default;" parent="1" vertex="1">
          <mxGeometry x="1256" y="48" width="120" height="60" as="geometry" />
        </mxCell>
        <mxCell id="qj8h1Q31FDAgZCi3IK30-9" value="" style="shape=curlyBracket;whiteSpace=wrap;html=1;rounded=1;flipH=1;labelPosition=right;verticalLabelPosition=middle;align=left;verticalAlign=middle;labelBackgroundColor=none;labelBorderColor=none;sketch=1;hachureGap=4;jiggle=2;curveFitting=1;fontFamily=Helvetica;fontSize=12;fontColor=default;" parent="1" vertex="1">
          <mxGeometry x="2435" y="537" width="63" height="258" as="geometry" />
        </mxCell>
        <mxCell id="vWAVznYgMX22e1zpLjMc-1" value="&lt;font style=&quot;font-size: 12px;&quot;&gt;抽象&lt;/font&gt;" style="rounded=0;whiteSpace=wrap;html=1;sketch=1;hachureGap=4;jiggle=2;curveFitting=1;fontFamily=Architects Daughter;fontSource=https%3A%2F%2Ffonts.googleapis.com%2Fcss%3Ffamily%3DArchitects%2BDaughter;fontSize=20;" parent="1" vertex="1">
          <mxGeometry x="2498" y="636" width="120" height="60" as="geometry" />
        </mxCell>
        <mxCell id="vWAVznYgMX22e1zpLjMc-9" value="&lt;font style=&quot;font-size: 12px;&quot;&gt;原始印象&lt;/font&gt;" style="rounded=0;whiteSpace=wrap;html=1;sketch=1;hachureGap=4;jiggle=2;curveFitting=1;fontFamily=Architects Daughter;fontSource=https%3A%2F%2Ffonts.googleapis.com%2Fcss%3Ffamily%3DArchitects%2BDaughter;fontSize=20;" parent="1" vertex="1">
          <mxGeometry x="1599" y="204" width="72" height="30" as="geometry" />
        </mxCell>
      </root>
    </mxGraphModel>
  </diagram>
  <diagram id="eTPJtrm2J6-1rgpKBoLS" name="第 2 页">
    <mxGraphModel dx="1878" dy="880" grid="1" gridSize="3" guides="1" tooltips="1" connect="1" arrows="1" fold="1" page="1" pageScale="1" pageWidth="1654" pageHeight="1169" math="0" shadow="0">
      <root>
        <mxCell id="0" />
        <mxCell id="1" parent="0" />
        <mxCell id="0wcPV7DmGJttlhHDe2lS-7" value="交流" style="edgeStyle=orthogonalEdgeStyle;rounded=0;orthogonalLoop=1;jettySize=auto;html=1;sketch=1;curveFitting=1;jiggle=2;" parent="1" source="0wcPV7DmGJttlhHDe2lS-2" target="0wcPV7DmGJttlhHDe2lS-4" edge="1">
          <mxGeometry relative="1" as="geometry" />
        </mxCell>
        <mxCell id="0wcPV7DmGJttlhHDe2lS-8" value="" style="swimlane;startSize=0;sketch=1;curveFitting=1;jiggle=2;" parent="1" vertex="1">
          <mxGeometry x="711" y="408" width="360" height="90" as="geometry" />
        </mxCell>
        <mxCell id="0wcPV7DmGJttlhHDe2lS-1" value="思想" style="rounded=0;whiteSpace=wrap;html=1;sketch=1;curveFitting=1;jiggle=2;" parent="0wcPV7DmGJttlhHDe2lS-8" vertex="1">
          <mxGeometry x="12" y="15" width="120" height="60" as="geometry" />
        </mxCell>
        <mxCell id="0wcPV7DmGJttlhHDe2lS-2" value="语言" style="rounded=0;whiteSpace=wrap;html=1;sketch=1;curveFitting=1;jiggle=2;" parent="0wcPV7DmGJttlhHDe2lS-8" vertex="1">
          <mxGeometry x="213" y="15" width="120" height="60" as="geometry" />
        </mxCell>
        <mxCell id="0wcPV7DmGJttlhHDe2lS-3" value="抽象" style="edgeStyle=orthogonalEdgeStyle;rounded=0;orthogonalLoop=1;jettySize=auto;html=1;entryX=0;entryY=0.5;entryDx=0;entryDy=0;sketch=1;curveFitting=1;jiggle=2;" parent="0wcPV7DmGJttlhHDe2lS-8" source="0wcPV7DmGJttlhHDe2lS-1" target="0wcPV7DmGJttlhHDe2lS-2" edge="1">
          <mxGeometry relative="1" as="geometry" />
        </mxCell>
        <mxCell id="0wcPV7DmGJttlhHDe2lS-9" value="" style="swimlane;startSize=0;sketch=1;curveFitting=1;jiggle=2;" parent="1" vertex="1">
          <mxGeometry x="711" y="570" width="360" height="90" as="geometry" />
        </mxCell>
        <mxCell id="0wcPV7DmGJttlhHDe2lS-5" value="思想" style="rounded=0;whiteSpace=wrap;html=1;sketch=1;curveFitting=1;jiggle=2;" parent="0wcPV7DmGJttlhHDe2lS-9" vertex="1">
          <mxGeometry x="15" y="15" width="120" height="60" as="geometry" />
        </mxCell>
        <mxCell id="0wcPV7DmGJttlhHDe2lS-4" value="语言" style="rounded=0;whiteSpace=wrap;html=1;sketch=1;curveFitting=1;jiggle=2;" parent="0wcPV7DmGJttlhHDe2lS-9" vertex="1">
          <mxGeometry x="213" y="15" width="120" height="60" as="geometry" />
        </mxCell>
        <mxCell id="0wcPV7DmGJttlhHDe2lS-6" value="联想" style="edgeStyle=orthogonalEdgeStyle;rounded=0;orthogonalLoop=1;jettySize=auto;html=1;sketch=1;curveFitting=1;jiggle=2;" parent="0wcPV7DmGJttlhHDe2lS-9" source="0wcPV7DmGJttlhHDe2lS-4" target="0wcPV7DmGJttlhHDe2lS-5" edge="1">
          <mxGeometry relative="1" as="geometry" />
        </mxCell>
      </root>
    </mxGraphModel>
  </diagram>
  <diagram id="Ssi2guWs2IpMnDcgtAZR" name="第 3 页">
    <mxGraphModel dx="1878" dy="880" grid="1" gridSize="3" guides="1" tooltips="1" connect="1" arrows="1" fold="1" page="1" pageScale="1" pageWidth="1654" pageHeight="1169" math="0" shadow="0">
      <root>
        <mxCell id="0" />
        <mxCell id="1" parent="0" />
        <mxCell id="Iega-zLza_dOQ-nAFohW-5" value="" style="ellipse;whiteSpace=wrap;html=1;aspect=fixed;fillColor=none;" vertex="1" parent="1">
          <mxGeometry x="600" y="285" width="170" height="170" as="geometry" />
        </mxCell>
        <mxCell id="Iega-zLza_dOQ-nAFohW-7" value="" style="ellipse;whiteSpace=wrap;html=1;aspect=fixed;fillColor=none;" vertex="1" parent="1">
          <mxGeometry x="627" y="276" width="170" height="170" as="geometry" />
        </mxCell>
        <mxCell id="Iega-zLza_dOQ-nAFohW-8" value="" style="ellipse;whiteSpace=wrap;html=1;aspect=fixed;fillColor=none;" vertex="1" parent="1">
          <mxGeometry x="627" y="303" width="170" height="170" as="geometry" />
        </mxCell>
        <mxCell id="Iega-zLza_dOQ-nAFohW-10" value="苹果" style="text;html=1;strokeColor=none;fillColor=none;align=center;verticalAlign=middle;whiteSpace=wrap;rounded=0;" vertex="1" parent="1">
          <mxGeometry x="675" y="355" width="60" height="30" as="geometry" />
        </mxCell>
        <mxCell id="8L6t1kNR6qW9Kffad-cG-1" value="果&lt;br&gt;1" style="text;html=1;strokeColor=none;fillColor=none;align=center;verticalAlign=middle;whiteSpace=wrap;rounded=0;" vertex="1" parent="1">
          <mxGeometry x="588" y="354" width="60" height="30" as="geometry" />
        </mxCell>
        <mxCell id="8L6t1kNR6qW9Kffad-cG-2" value="果2" style="text;html=1;strokeColor=none;fillColor=none;align=center;verticalAlign=middle;whiteSpace=wrap;rounded=0;" vertex="1" parent="1">
          <mxGeometry x="726" y="288" width="60" height="30" as="geometry" />
        </mxCell>
        <mxCell id="8L6t1kNR6qW9Kffad-cG-3" value="果3" style="text;html=1;strokeColor=none;fillColor=none;align=center;verticalAlign=middle;whiteSpace=wrap;rounded=0;" vertex="1" parent="1">
          <mxGeometry x="705" y="441" width="60" height="30" as="geometry" />
        </mxCell>
      </root>
    </mxGraphModel>
  </diagram>
</mxfile>
